<?xml version="1.0" standalone="no"?><!DOCTYPE svg PUBLIC "-//W3C//DTD SVG 1.1//EN" "http://www.w3.org/Graphics/SVG/1.1/DTD/svg11.dtd"><svg t="1516348626099" class="icon" style="" viewBox="0 0 1024 1024" version="1.1" xmlns="http://www.w3.org/2000/svg" p-id="1426" xmlns:xlink="http://www.w3.org/1999/xlink" width="200" height="200"><defs><style type="text/css"></style></defs><path d="M845.527 364.073c-26.46-19.716-30.558-55.387-30.558-63.027s-63.027-143.242-91.675-164.251c-28.648-21.009-363.159-8.806-418.267-5.73-55.108 3.076-105.044 183.35-105.044 183.35l-9.549-1.91s-62.408 71.284-74.486 80.216C103.87 401.653 79.66 648.647 83.48 683.025c3.82 34.378 78.306 70.666 78.306 70.666h15.002a75.738 75.738 0 0 0-5.593 28.573c0 43.289 36.373 78.381 81.24 78.381 44.868 0 81.24-35.093 81.24-78.381a75.718 75.718 0 0 0-5.593-28.573h379.745c-8.339 11.331-13.182 24.739-13.182 39.122 0 40.593 38.429 73.5 85.834 73.5s85.835-32.907 85.835-73.5c0-18.119-7.671-34.695-20.365-47.509 38.556-5.472 68.048-12.336 72.154-16.442 7.64-7.64 5.73-257.836 7.64-288.394 1.909-30.557-53.757-56.678-80.216-76.395z" fill="#FFFFFF" p-id="1427"></path><path d="M837.474 545.95l4.977 1.134-4.977-1.134zM231.629 485.3h-0.01c-40.251 0-73.218 32.624-73.479 72.718-0.281 40.584 32.53 73.917 73.802 74.302 40.407 0 73.375-32.968 73.489-73.5 0.052-19.599-7.502-38.011-21.287-51.848-13.931-13.972-32.582-21.661-52.515-21.672z m0.052 104.342h-0.01c-17.13-0.156-30.967-14.212-30.852-31.342 0.104-16.713 13.931-30.321 30.8-30.321l0.042-21.339-0.01 21.339c8.502 0 16.4 3.24 22.256 9.117 5.731 5.741 8.867 13.42 8.846 21.6-0.053 16.775-14.161 30.946-31.072 30.946z" fill="#ffffff" p-id="1428" data-spm-anchor-id="a313x.7781069.0.i3" class="selected"></path><path d="M956.852 647.096c0-45.94-5.543-200.962-5.772-207.068-0.521-37.51-26.799-64.966-49.097-77.053l-4.731-2.49c-12.052-6.321-21.045-11.109-27.762-14.744 22.182-10.054 34.768-17.35 36.494-18.37 10.149-5.981 13.525-19.068 7.544-29.216-6.002-10.159-19.089-13.566-29.216-7.544-0.449 0.263-14.611 8.462-40.542 19.679-5.488-15.899-11.026-33.771-16.453-51.313-10.232-33.061-20.818-67.238-31.78-90.588-20.61-43.971-57.058-67.258-105.384-67.331l-99.84-0.062-128.88 0.021c-40.897 0-81.783-0.021-123.003-0.104-51.233 0-88.087 23.496-109.541 69.832-13.556 29.269-35.781 95.912-50.483 140.008l-1.114 3.338c-25.103-9.482-39.319-16.26-39.793-16.488-10.555-5.126-23.361-0.709-28.498 9.899-5.137 10.597-0.729 23.361 9.878 28.497 1.725 0.838 13.25 6.358 32.961 14.181-22.073 10.747-51.359 26.276-59.208 36.01-9.826 12.191-15.567 24.486-18.609 39.865-2.907 14.733-10.868 190.032-10.868 227.439 0 71.978 45.169 107.593 80.335 120.95-0.208 2.761-0.344 5.533-0.344 8.075 0.083 62.445 47.68 113.334 106.113 113.448h0.177c59.59 0 110.072-51.837 110.229-113.198l306.69-0.469v1.344c0.167 54.088 35.927 112.313 114.032 112.323 54.39 0 89.754-38.375 99.882-74.427 5.835-15.942 6.21-31.988 5.981-46.607 31.279-12.712 70.686-49.024 70.602-127.837zM218.896 324.245c14.4-43.189 36.166-108.457 48.712-135.559 14.254-30.769 36.75-45.096 71.062-45.096 40.918 0.083 81.846 0.104 122.763 0.104l128.88-0.021 99.757 0.062c31.946 0.052 53.182 13.639 66.831 42.772 9.69 20.672 19.839 53.421 29.654 85.086 5.724 18.504 11.564 37.361 17.502 54.405-64.954 23.49-166.233 50.02-292.381 50.02-120.924 0-226.264-25.815-294.098-47.823l1.318-3.95z m30.54 529.044v21.339l-0.094-21.339c-34.979-0.073-63.466-31.842-63.518-70.822-0.001-0.675 0.018-1.417 0.053-2.209h131.108v2.396c-0.093 37.625-31.664 70.635-67.549 70.635z m589.904-43.846c-4.064 15.16-21.61 43.846-58.954 43.846-52.515-0.01-71.249-37.594-71.353-69.77v-3.261h134.575c0.02 9.906-0.579 19.167-3.601 27.112-0.25 0.677-0.479 1.364-0.667 2.073z m23.54-71.864H168.957c-11.381-2.492-63.123-17.492-63.123-84.086 0-39.438 8.002-205.693 10.055-219.155 1.969-9.919 5.272-15.536 9.107-20.412 7.94-7.231 58.37-32.144 66.31-35.229 5.113-1.711 9.352-5.302 11.93-10.002 70.714 23.13 180.42 50.003 308.441 50.003 134.049 0 240.682-28.088 309.124-53.132 4.492 4.877 15.76 11.269 56.614 32.709l4.189 2.209c9.836 5.314 26.528 19.755 26.82 40.605 0.042 1.594 5.752 160.826 5.752 206.026 0.077 76.345-42.902 88.771-51.296 90.464z" fill="#ffffff" p-id="1429" data-spm-anchor-id="a313x.7781069.0.i2" class="selected"></path><path d="M789.972 485.29c-19.985 0-38.719 7.804-52.723 21.964-13.837 13.973-21.318 32.415-21.11 51.942 0.438 40.303 33.447 73.145 73.729 73.218h0.021c19.547 0 37.906-7.617 51.723-21.454 13.983-13.994 21.652-32.676 21.631-52.619-0.063-40.948-32.238-73.041-73.271-73.051z m21.444 95.516c-5.752 5.762-13.4 8.93-21.61 8.93-16.609-0.031-30.8-14.223-30.988-30.998-0.083-8.044 3.022-15.661 8.773-21.464 5.918-6.002 13.879-9.305 22.381-9.305 17.13 0.01 30.571 13.379 30.592 30.436 0.021 8.522-3.23 16.483-9.148 22.401zM390.955 193.417c-8.336-8.336-21.839-8.336-30.175 0l-57.662 57.652c-8.336 8.325-8.336 21.839 0 30.175 4.168 4.168 9.628 6.252 15.088 6.252s10.92-2.084 15.088-6.252l57.662-57.651c8.334-8.326 8.334-21.841-0.001-30.176zM527.232 169.181c-8.388-8.273-21.892-8.19-30.186 0.177l-111.02 112.323c-8.284 8.388-8.2 21.892 0.177 30.186a21.299 21.299 0 0 0 15.004 6.158 21.299 21.299 0 0 0 15.181-6.335l111.021-112.323c8.284-8.388 8.201-21.892-0.177-30.186zM591.604 604.261H422.068c-11.785 0-21.339 9.555-21.339 21.339 0 11.785 9.555 21.339 21.339 21.339h169.537c11.795 0 21.339-9.555 21.339-21.339 0-11.785-9.545-21.339-21.34-21.339z" fill="#ffffff" p-id="1430" data-spm-anchor-id="a313x.7781069.0.i4" class="selected"></path></svg>