<?xml version="1.0" standalone="no"?><!DOCTYPE svg PUBLIC "-//W3C//DTD SVG 1.1//EN" "http://www.w3.org/Graphics/SVG/1.1/DTD/svg11.dtd"><svg t="1520585015071" class="icon" style="" viewBox="0 0 1024 1024" version="1.1" xmlns="http://www.w3.org/2000/svg" p-id="893" xmlns:xlink="http://www.w3.org/1999/xlink" width="200" height="200"><defs><style type="text/css"></style></defs><path d="M733.320665 892.955408l0-45.985334 80.473823 0c11.495822 0 22.992667 11.495822 22.992667 22.992667 0 11.495822-11.495822 22.992667-22.992667 22.992667L733.320665 892.955408 733.320665 892.955408zM733.320665 762.664993l0-22.992667 0 0c11.495822 0 22.992667-3.832282 34.488489-11.495822 7.664563-3.832282 11.495822-15.328104 11.495822-26.824949 0-22.992667-15.328104-34.488489-45.985334-38.320771l0-22.992667c22.992667-3.832282 38.320771-15.328104 38.320771-30.656207 0-22.992667-11.495822-34.488489-38.320771-34.488489l0 0 0-22.992667c0 0 3.832282 0 7.664563 0 15.328104 0 30.656207 3.832282 42.153052 15.328104 7.664563 7.664563 15.328104 19.160385 15.328104 34.488489 0 22.992667-15.328104 42.153052-42.153052 49.816592l0 0c15.328104 0 26.824949 7.664563 34.488489 15.328104 11.495822 7.664563 15.328104 19.160385 15.328104 34.488489 0 19.160385-7.664563 30.656207-22.992667 42.153052C771.641435 755.001453 752.48105 762.664993 733.320665 762.664993L733.320665 762.664993zM733.320665 367.961466l0-22.992667 49.816592 0 0-88.137363 26.824949 0 0 203.099674-26.824949 0 0-91.969645L733.320665 367.961466 733.320665 367.961466zM733.320665 164.860768 733.320665 122.707716l80.473823 0c11.495822 0 22.992667 7.664563 22.992667 22.992667 0 11.495822-11.495822 19.160385-22.992667 19.160385L733.320665 164.860768zM733.320665 122.707716l0 42.153052L545.549094 164.860768 545.549094 122.707716 733.320665 122.707716 733.320665 122.707716zM733.320665 344.968799l0 22.992667-53.648874 0 0 91.969645-26.824949 0L652.846842 256.830413l26.824949 0 0 88.137363L733.320665 344.967776 733.320665 344.968799zM733.320665 551.900755l0 22.992667c-15.328104 0-26.824949 3.832282-42.153052 15.328104l0-26.824949C702.663434 555.733037 717.992561 551.900755 733.320665 551.900755L733.320665 551.900755zM733.320665 640.038118l0 22.992667c-3.832282 0-7.664563 0-11.495822 0l-15.328104 0 0-22.992667 15.328104 0C725.656101 640.038118 729.488383 640.038118 733.320665 640.038118L733.320665 640.038118zM733.320665 739.672326l0 22.992667 0 0c-22.992667 0-38.320771-3.832282-49.816592-11.495822l0-26.824949C698.832176 735.840044 714.160279 739.672326 733.320665 739.672326L733.320665 739.672326zM733.320665 846.971098l0 45.985334L545.549094 892.956432l0-45.985334L733.320665 846.971098 733.320665 846.971098zM545.549094 758.832711l0-22.992667 84.306104 0 0 22.992667L545.549094 758.832711 545.549094 758.832711zM545.549094 724.344223l0-30.656207 15.328104-19.160385c19.160385-15.328104 30.656207-26.824949 34.488489-38.320771 7.664563-7.664563 7.664563-19.160385 7.664563-26.824949 0-11.495822 0-19.160385-7.664563-26.824949-7.664563-3.832282-15.328104-7.664563-30.656207-7.664563-7.664563 0-11.495822 0-19.160385 3.832282l0-22.992667c7.664563-3.832282 15.328104-3.832282 22.992667-3.832282 19.160385 0 34.488489 3.832282 45.985334 15.328104 11.495822 11.495822 15.328104 22.992667 15.328104 42.153052 0 7.664563-3.832282 19.160385-11.495822 30.656207-3.832282 15.328104-19.160385 30.656207-38.320771 49.816592L545.549094 724.344223 545.549094 724.344223zM545.549094 463.763392l0-30.656207c7.664563-7.664563 11.495822-22.992667 11.495822-45.985334L557.044916 256.830413l26.824949 0 0 130.290415c0 22.992667-3.832282 42.153052-15.328104 57.481156C560.877197 452.266547 553.212634 459.931111 545.549094 463.763392zM468.907553 452.266547c-11.495822 7.664563-30.656207 11.495822-53.648874 11.495822-7.664563 0-15.328104 0-22.992667 0l0-26.824949c7.664563 3.832282 15.328104 3.832282 26.824949 3.832282 19.160385 0 38.320771-3.832282 49.816592-11.495822L468.907553 452.266547 468.907553 452.266547zM392.264988 252.999155c11.495822 0 19.160385 0 30.656207 0 19.160385 0 34.488489 0 45.985334 7.664563l0 26.824949c-11.495822-7.664563-30.656207-11.495822-45.985334-11.495822-11.495822 0-19.160385 0-30.656207 3.832282L392.264988 252.999155 392.264988 252.999155zM545.549094 122.707716l0 42.153052L392.264988 164.860768 392.264988 122.707716 545.549094 122.707716 545.549094 122.707716zM545.549094 433.106162l0 30.656207c-7.664563 0-11.495822 0-19.160385 0s-15.328104 0-22.992667-3.832282l0-22.992667c7.664563 3.832282 15.328104 3.832282 22.992667 3.832282S541.716812 440.770725 545.549094 433.106162L545.549094 433.106162zM545.549094 555.733037l0 22.992667c-11.495822 3.832282-22.992667 7.664563-30.656207 19.160385l0-26.824949C522.556427 563.396577 534.052249 559.565319 545.549094 555.733037L545.549094 555.733037zM545.549094 693.688016l0 30.656207-11.495822 11.495822 0 0 11.495822 0 0 22.992667-42.153052 0 0-22.992667L545.549094 693.688016 545.549094 693.688016zM545.549094 846.971098l0 45.985334L392.264988 892.956432l0-45.985334L545.549094 846.971098 545.549094 846.971098zM392.264988 758.832711 392.264988 555.733037l19.160385-3.832282 0 183.939289 45.985334 0 0 22.992667L392.264988 758.832711zM392.264988 463.763392c-19.160385-3.832282-34.488489-11.495822-49.816592-26.824949-19.160385-19.160385-26.824949-42.153052-26.824949-72.809259 0-34.488489 11.495822-61.313437 30.656207-80.473823 11.495822-15.328104 30.656207-22.992667 45.985334-30.656207l0 26.824949c-7.664563 3.832282-19.160385 11.495822-26.824949 19.160385-15.328104 15.328104-22.992667 34.488489-22.992667 61.313437 0 26.824949 7.664563 45.985334 22.992667 57.481156 7.664563 11.495822 15.328104 15.328104 26.824949 19.160385L392.264988 463.763392 392.264988 463.763392zM392.264988 122.707716 212.157981 122.707716l0 0c-15.328104 0-22.992667 7.664563-22.992667 22.992667l0 724.262358c0 11.495822 7.664563 22.992667 22.992667 22.992667l180.108031 0 0-45.985334L231.318366 846.970074 231.318366 164.860768l160.947645 0L392.266012 122.707716 392.264988 122.707716zM392.264988 555.733037l0 203.099674L338.616114 758.832711l0-22.992667 45.985334 0L384.601448 582.556962l-49.816592 15.328104 0-26.824949L392.264988 555.733037z" p-id="894" fill="#1296db"></path></svg>