<?xml version="1.0" standalone="no"?><!DOCTYPE svg PUBLIC "-//W3C//DTD SVG 1.1//EN" "http://www.w3.org/Graphics/SVG/1.1/DTD/svg11.dtd"><svg t="1520586356326" class="icon" style="" viewBox="0 0 1024 1024" version="1.1" xmlns="http://www.w3.org/2000/svg" p-id="6933" xmlns:xlink="http://www.w3.org/1999/xlink" width="200" height="200"><defs><style type="text/css"></style></defs><path d="M574.213565 290.329968c-78.329493 0-141.698539 63.490676-141.698539 141.698539 0 18.609336 15.082076 33.691412 33.691412 33.691412 18.609336 0 33.691412-15.082076 33.691412-33.691412 0-40.989191 33.204894-74.194085 74.194085-74.194085s74.194085 33.204894 74.194085 74.194085c0 18.609336 15.082076 33.691412 33.691412 33.691412 18.609336 0 33.691412-15.082076 33.691412-33.691412 0.243259-78.207863-63.247417-141.698539-141.455279-141.698539z m0-131.11676c-137.92802 0-249.705666 111.777646-249.705666 249.705666 0 18.609336 15.082076 33.691412 33.813042 33.691412 18.609336 0 33.691412-15.082076 33.691412-33.691412 0-100.709348 81.491864-182.201212 182.201212-182.201212s182.201212 81.491864 182.201211 182.201212c0 18.609336 15.082076 33.691412 33.691412 33.691412 18.609336 0 33.691412-15.082076 33.691413-33.691412 0.12163-137.92802-111.656016-249.705666-249.584036-249.705666z" fill="#BAD4FF" p-id="6934"></path><path d="M790.227818 456.232807c-26.028745 0-47.192303-21.163559-47.192303-47.192303 0-93.04668-75.653641-168.700321-168.700321-168.700321S405.391614 315.872194 405.391614 408.918874c0 26.028745-21.163559 47.192303-47.192303 47.192303s-47.192303-21.163559-47.192303-47.192303c0-145.104169 118.102387-263.206557 263.206557-263.206557s263.206557 118.102387 263.206556 263.206557c0 26.028745-21.163559 47.313933-47.192303 47.313933zM574.213565 213.216772c107.885497 0 195.702102 87.816605 195.702102 195.702102 0 11.189928 9.122224 20.190521 20.190521 20.190521s20.190521-9.122224 20.190522-20.190521c0.12163-130.265352-105.817793-236.204775-236.083145-236.204775s-236.204775 105.939423-236.204775 236.204775c0 11.189928 9.122224 20.190521 20.190521 20.190521 11.189928 0 20.190521-9.122224 20.190522-20.190521 0-107.885497 87.816605-195.702102 195.823732-195.702102z m108.007126 266.125668c-26.028745 0-47.192303-21.163559-47.192303-47.192303 0-33.448153-27.245041-60.693194-60.693194-60.693194S513.642 398.701984 513.642 432.150137c0 26.028745-21.163559 47.192303-47.192303 47.192303s-47.192303-21.163559-47.192303-47.192303c0-85.627272 69.693788-155.19943 155.19943-155.19943S729.656254 346.644495 729.656254 432.150137c-0.243259 25.907115-21.406818 47.192303-47.435563 47.192303z m-108.007126-135.008909c48.4086 0 87.694976 39.408006 87.694975 87.694976 0 11.189928 9.122224 20.190521 20.190522 20.190521 11.189928 0 20.190521-9.122224 20.190521-20.190521 0-70.666825-57.530823-128.197648-128.197648-128.197648s-128.197648 57.530823-128.197648 128.197648c0 11.189928 9.122224 20.190521 20.190521 20.190521 11.189928 0 20.190521-9.122224 20.190522-20.190521 0.12163-48.28697 39.529635-87.694976 87.938235-87.694976z" fill="#4E8CEE" p-id="6935"></path><path d="M596.228531 585.403492h-46.584155c-0.973037 0-1.702815-0.729778-1.702815-1.702815v-137.441501c0-13.74415 11.189928-24.934078 24.934077-24.934078s24.934078 11.189928 24.934078 24.934078V583.822307c0.12163 0.851408-0.608148 1.581185-1.581185 1.581185z" fill="#FFFFFF" p-id="6936"></path><path d="M596.228531 598.904383h-60.085046l-1.702815-15.203706v-137.441501c0-21.163559 17.27141-38.434969 38.434968-38.434969 21.285188 0 38.434969 17.27141 38.434969 38.434969v151.064022l-15.082076 1.581185z m-34.786079-27.001782h22.988003V446.259176c0-6.324742-5.108445-11.433187-11.433187-11.433187-6.203112 0-11.433187 5.230075-11.433187 11.433187v125.643425z" fill="#4E8CEE" p-id="6937"></path><path d="M725.399216 838.271529h-492.600071c-20.920299 0-37.82682-16.906521-37.82682-37.826821V626.271054c0-22.744744 18.487706-41.23245 41.23245-41.232451h493.208219c23.231263 0 42.327117 18.974225 42.327118 42.327117v164.686543c0 25.420596-20.79867 46.219266-46.340896 46.219266z" fill="#BAD4FF" p-id="6938"></path><path d="M792.538781 838.271529h-41.35408V585.038603H790.957596c18.122817 0 32.840005 14.838817 32.840005 32.840005v189.134101c0 17.27141-13.987409 31.258819-31.25882 31.25882z" fill="#FFFFFF" p-id="6939"></path><path d="M795.701152 853.475235H227.44744c-29.799264 0-54.003563-24.2043-54.003563-54.003564V624.08172c0-29.799264 24.2043-54.003563 54.003563-54.003563h568.253712c29.799264 0 54.003563 24.2043 54.003564 54.003563v175.511581c0 29.677634-24.2043 53.881934-54.003564 53.881934zM227.44744 597.079938c-14.838817 0-27.001782 12.162965-27.001781 27.001782v175.511581c0 14.838817 12.162965 27.001782 27.001781 27.001782h568.253712c14.838817 0 27.001782-12.162965 27.001782-27.001782V624.08172c0-14.838817-12.162965-27.001782-27.001782-27.001782H227.44744z" fill="#4E8CEE" p-id="6940"></path><path d="M297.384487 713.479511m-27.001781 0a27.001782 27.001782 0 1 0 54.003563 0 27.001782 27.001782 0 1 0-54.003563 0Z" fill="#FFFFFF" p-id="6941"></path><path d="M297.384487 748.508849c-19.339114 0-35.150968-15.690224-35.150968-35.150968 0-19.339114 15.690224-35.150968 35.150968-35.150968s35.150968 15.690224 35.150969 35.150968c0 19.460744-15.690224 35.150968-35.150969 35.150968z m0-54.003563c-10.46015 0-18.852595 8.514075-18.852595 18.852595 0 10.46015 8.514075 18.852595 18.852595 18.852595s18.852595-8.514075 18.852596-18.852595c0.12163-10.33852-8.392446-18.852595-18.852596-18.852595z" fill="#4E8CEE" p-id="6942"></path><path d="M376.687017 713.479511m-27.001781 0a27.001782 27.001782 0 1 0 54.003563 0 27.001782 27.001782 0 1 0-54.003563 0Z" fill="#FFFFFF" p-id="6943"></path><path d="M376.687017 748.508849c-19.339114 0-35.150968-15.690224-35.150968-35.150968 0-19.339114 15.690224-35.150968 35.150968-35.150968s35.150968 15.690224 35.150969 35.150968c-0.12163 19.460744-15.811854 35.150968-35.150969 35.150968z m0-54.003563c-10.46015 0-18.852595 8.514075-18.852595 18.852595 0 10.46015 8.514075 18.852595 18.852595 18.852595s18.852595-8.514075 18.852596-18.852595-8.514075-18.852595-18.852596-18.852595z" fill="#4E8CEE" p-id="6944"></path></svg>