<?xml version="1.0" standalone="no"?><!DOCTYPE svg PUBLIC "-//W3C//DTD SVG 1.1//EN" "http://www.w3.org/Graphics/SVG/1.1/DTD/svg11.dtd"><svg t="1519547821326" class="icon" style="" viewBox="0 0 1024 1024" version="1.1" xmlns="http://www.w3.org/2000/svg" p-id="3576" xmlns:xlink="http://www.w3.org/1999/xlink" width="200" height="200"><defs><style type="text/css"></style></defs><path d="M478.589065 294.377425h252.839506v397.319224h-361.199294z" fill="#C0EAFF" p-id="3577"></path><path d="M695.308642 843.400353h-75.851852c-10.835979 0-18.059965-7.223986-18.059965-18.059965s7.223986-18.059965 18.059965-18.059965h75.851852c7.223986 0 12.641975-5.417989 12.641975-12.641975V222.137566c0-7.223986-5.417989-12.641975-12.641975-12.641975H323.273369c-7.223986 0-12.641975 5.417989-12.641976 12.641975V794.638448c0 7.223986 5.417989 12.641975 12.641976 12.641975h229.361552c10.835979 0 18.059965 7.223986 18.059964 18.059965s-7.223986 18.059965-18.059964 18.059965H323.273369c-27.089947 0-48.761905-21.671958-48.761905-48.761905V222.137566c0-27.089947 21.671958-48.761905 48.761905-48.761905h370.229277c27.089947 0 48.761905 21.671958 48.761904 48.761905V794.638448c0 27.089947-21.671958 48.761905-46.955908 48.761905z" fill="#1F87DD" p-id="3578"></path><path d="M724.204586 316.049383H294.377425c-10.835979 0-18.059965-7.223986-18.059965-18.059965s7.223986-18.059965 18.059965-18.059965h429.827161c10.835979 0 18.059965 7.223986 18.059964 18.059965s-9.029982 18.059965-18.059964 18.059965zM715.174603 707.950617H294.377425c-10.835979 0-18.059965-7.223986-18.059965-18.059964s7.223986-18.059965 18.059965-18.059965h420.797178c10.835979 0 18.059965 7.223986 18.059965 18.059965s-9.029982 18.059965-18.059965 18.059964z" fill="#1F87DD" p-id="3579"></path><path d="M547.216931 263.675485H469.559083c-10.835979 0-18.059965-7.223986-18.059965-18.059965s7.223986-18.059965 18.059965-18.059964h77.657848c10.835979 0 18.059965 7.223986 18.059965 18.059964s-7.223986 18.059965-18.059965 18.059965z" fill="#1F87DD" p-id="3580"></path></svg>