<?xml version="1.0" standalone="no"?><!DOCTYPE svg PUBLIC "-//W3C//DTD SVG 1.1//EN" "http://www.w3.org/Graphics/SVG/1.1/DTD/svg11.dtd"><svg t="1527479093345" class="icon" style="" viewBox="0 0 1024 1024" version="1.1" xmlns="http://www.w3.org/2000/svg" p-id="3078" xmlns:xlink="http://www.w3.org/1999/xlink" width="200" height="200"><defs><style type="text/css"></style></defs><path d="M924.346349 337.794399c-22.540366-53.292764-54.806233-101.151771-95.897094-142.242631-41.091884-41.091884-88.949868-73.357751-142.244678-95.89914C631.015627 76.308967 572.404742 64.473407 512 64.473407S392.984373 76.308967 337.794399 99.651604c-53.293787 22.541389-101.151771 54.806233-142.243655 95.89914-41.09086 41.09086-73.355705 88.948845-95.897094 142.243655-23.343661 55.18895-35.17922 113.800859-35.17922 174.204577 0 60.404742 11.836583 119.015627 35.17922 174.205601 22.541389 53.293787 54.806233 101.151771 95.897094 142.242631 41.091884 41.091884 88.949868 73.356728 142.243655 95.89914 55.18895 23.342638 113.800859 35.17922 174.205601 35.17922 36.198433 0 73.330122-18.99768 116.324332-40.995693 54.974056-28.126594 117.284193-60.006675 192.182021-60.006675 14.19121 0 25.695219-11.504008 25.695219-25.695219s-11.504008-25.695219-25.695219-25.695219c-87.281879 0-158.426219 36.399001-215.59015 65.646116-37.0795 18.971074-69.101821 35.354206-92.916203 35.354206-218.429825 0-396.135132-177.705308-396.135132-396.134109S293.571199 115.864868 512 115.864868c218.427778 0 396.134109 177.706331 396.134109 396.135132 0 66.00018-16.549931 131.328048-47.861054 188.92279-6.77838 12.466939-2.165316 28.069289 10.301623 34.846646 12.466939 6.77838 28.071336 2.164293 34.846646-10.301623 35.395138-65.103764 54.103222-138.919956 54.103222-213.468836C959.526593 451.596282 947.69001 392.984373 924.346349 337.794399L924.346349 337.794399z" fill="#0894ec" p-id="3079"></path><path d="M486.304781 511.997953 486.304781 738.91201c0 14.192234 11.504008 25.697265 25.695219 25.697265 14.19121 0 25.697265-11.504008 25.697265-25.697265L537.697265 511.997953c0-14.19121-11.504008-25.695219-25.697265-25.695219C497.80879 486.302735 486.304781 497.806743 486.304781 511.997953L486.304781 511.997953z" fill="#0894ec" p-id="3080"></path><path d="M601.892333 342.067726c0-24.010857-9.350972-46.584991-26.329668-63.562665-16.978696-16.978696-39.550785-26.329668-63.562665-26.329668-24.01188 0-46.584991 9.350972-63.563688 26.329668-35.048237 35.049261-35.049261 92.076068 0 127.125329 16.978696 16.977673 39.551808 26.328645 63.563688 26.328645 24.010857 0 46.583968-9.350972 63.562665-26.328645C592.541361 388.653741 601.892333 366.079606 601.892333 342.067726L601.892333 342.067726zM539.224038 369.292787c-7.270591 7.271614-16.938788 11.275811-27.224038 11.275811-10.283204 0-19.951401-4.004197-27.221991-11.274788-15.010879-15.011902-15.010879-39.437198 0-54.448076 7.271614-7.271614 16.939811-11.275811 27.221991-11.275811 10.285251 0 19.952424 4.004197 27.225061 11.276834 7.271614 7.271614 11.276834 16.939811 11.276834 27.221991C550.500872 352.351953 546.495652 362.019127 539.224038 369.292787L539.224038 369.292787z" fill="#0894ec" p-id="3081"></path></svg>