<?xml version="1.0" standalone="no"?><!DOCTYPE svg PUBLIC "-//W3C//DTD SVG 1.1//EN" "http://www.w3.org/Graphics/SVG/1.1/DTD/svg11.dtd"><svg t="1527478893683" class="icon" style="" viewBox="0 0 1024 1024" version="1.1" xmlns="http://www.w3.org/2000/svg" p-id="2385" xmlns:xlink="http://www.w3.org/1999/xlink" width="200" height="200"><defs><style type="text/css"></style></defs><path d="M864.713788 303.989459H391.957082c-13.022871 0-22.256941 0-36.972423 10.3424-3.7888 2.993694-5.897035 6.017506-7.583624 8.155859-10.492988 12.528941-9.655718 30.189929 1.686589 40.116706l230.291576 207.341929 1.258918 1.295059c2.108235 1.307106 4.210447 2.614212 6.698164 3.451482 0.849318 0.457788 1.270965 0.457788 2.108236 0.879435 2.114259 0.849318 4.216471 1.313129 5.903058 1.31313h3.752659a24.335059 24.335059 0 0 0 5.475389-0.885459 32.039153 32.039153 0 0 0 7.161976-3.023812l273.269459-213.395576-49.067671 337.136941c-3.029835 17.739294-22.070212 27.473318-27.509459 27.473318H320.548141c-15.131106 0-28.961129 5.975341-28.961129 21.070305 0 15.516612 11.300141 17.395953 26.0096 17.395953h487.85167c32.376471 0 62.180894-26.708329 66.819012-59.452235l45.399341-336.29967c2.066071-16.781553-2.114259-32.334306-12.179576-44.405459A53.127529 53.127529 0 0 0 864.713788 303.989459z m-16.582776 41.990023L597.118494 532.552282 380.084706 347.593788l468.046306-1.614306z" fill="#0094DA" p-id="2386"></path><path d="M498.615718 637.331576c0-15.552753-13.1072-19.498165-27.810636-19.498164H228.333929c-15.137129 0-25.979482 4.4032-25.979482 19.498164 0 15.516612 13.293929 19.431906 27.967247 19.431906h242.085647c15.100988 0.415624 26.208376-3.909271 26.208377-19.431906zM419.695435 530.944H106.315294C91.184188 530.944 76.968659 535.811012 76.968659 550.869835c0 15.558776 12.908424 19.955953 27.581741 19.955953h313.500612c14.709459 0.415624 26.166212-4.397176 26.166212-19.919812s-9.734024-19.925835-24.443483-19.925835l-0.078306-0.036141zM197.951247 469.112471h142.052894c15.094965 0 29.003294-5.625976 29.003294-20.690824 0-15.552753-14.444424-20.6848-29.153882-20.6848H197.8368c-15.137129 0-24.636235 5.595859-24.636235 20.6848 0.006024 15.064847 10.041224 20.690824 24.750682 20.690824z" fill="#0094DA" p-id="2387"></path></svg>