<?xml version="1.0" standalone="no"?><!DOCTYPE svg PUBLIC "-//W3C//DTD SVG 1.1//EN" "http://www.w3.org/Graphics/SVG/1.1/DTD/svg11.dtd"><svg t="1527579984467" class="icon" style="" viewBox="0 0 1024 1024" version="1.1" xmlns="http://www.w3.org/2000/svg" p-id="1946" xmlns:xlink="http://www.w3.org/1999/xlink" width="200" height="200"><defs><style type="text/css"></style></defs><path d="M545.093 641.835a133.01 133.01 0 0 1 21.738-66.689 299.18 299.18 0 0 0 52.32-106.113 142.59 142.59 0 0 0 51.214-95.427c3.316-56.741-10.685-59.689-10.685-59.689 20.633-61.9 26.896-294.758-122.693-267.861-23.58-49.372-180.54-87.69-253.86 43.108a276.335 276.335 0 0 0-21.37 226.964c0 5.158-9.948-5.159-13.264 28.002a168.38 168.38 0 0 0 27.633 100.217 62.636 62.636 0 0 0 25.423 18.791 270.809 270.809 0 0 0 54.162 110.534 61.9 61.9 0 0 1-32.424 65.952C181.067 668.732 51.005 747.211 51.005 832.322v65.952c16.58 119.009 339.708 110.535 557.829 105.745a20.265 20.265 0 0 0 6.264-26.528 117.166 117.166 0 0 0-55.636-42.372c0-1.842-6.632-2.947-7.369-4.79a97.639 97.639 0 0 1-8.474-58.951s0.737-226.227 1.474-229.543z" fill="#209CDD" p-id="1947"></path><path d="M913.54 578.462H670.733a57.478 57.478 0 0 0-58.951 55.267v253.86a69.268 69.268 0 0 0 14.737 33.16l140.01 95.797a39.792 39.792 0 0 0 25.792 7.369 32.792 32.792 0 0 0 25.423-11.054l136.325-92.111a36.845 36.845 0 0 0 18.422-29.476v-253.86a52.688 52.688 0 0 0-58.951-58.952z m2.579 145.168l-51.951 50.11 12.896 69.636a11.79 11.79 0 0 1-4.79 12.158 11.422 11.422 0 0 1-7.37 2.58 15.475 15.475 0 0 1-5.894 0l-65.215-32.055-65.584 32.055a15.475 15.475 0 0 1-5.527 0 11.422 11.422 0 0 1-7.737-2.58 12.527 12.527 0 0 1-4.79-12.158l13.633-69.637-51.952-48.266a12.159 12.159 0 0 1-3.316-12.896 12.896 12.896 0 0 1 10.317-8.474l72.216-14.37 31.318-63.373a12.896 12.896 0 0 1 22.843 0l32.055 64.847 71.848 12.527a12.896 12.896 0 0 1 9.948 8.475 12.527 12.527 0 0 1-2.948 11.421z" fill="#209CDD" p-id="1948"></path></svg>